<svg width="500" height="500" viewBox="0 0 500 500" fill="none" xmlns="http://www.w3.org/2000/svg">
<path d="M448.43 380C448.5 380 449.21 374.82 449.21 374.49C449.29 370.62 447.21 363.11 443.07 361.7C442.384 361.484 441.661 361.415 440.947 361.498C440.232 361.581 439.544 361.813 438.925 362.18C438.307 362.547 437.773 363.041 437.359 363.628C436.944 364.216 436.659 364.884 436.52 365.59C435.82 368.59 437.52 371.91 439.39 374.13C441.56 376.75 448.42 380 448.43 380Z" fill="#263238"/>
<path d="M371.91 387.42C375.15 388.42 382.68 387.34 382.68 387.34C382.68 387.34 380.48 382.59 380.3 382.34C378.23 379.07 372.3 373.98 368.12 375.06C367.429 375.259 366.788 375.602 366.238 376.065C365.688 376.528 365.243 377.102 364.929 377.749C364.616 378.396 364.443 379.102 364.42 379.821C364.398 380.539 364.527 381.255 364.8 381.92C365.86 384.76 369.14 386.59 371.91 387.42Z" fill="#263238"/>
<path d="M410.89 445.8C411.61 447.14 412.34 448.49 412.98 449.8C413.4 450.72 413.86 451.58 414.23 452.53L415.37 455.29C416.03 457.08 416.72 458.92 417.32 460.67C417.74 461.89 418.13 463.06 418.52 464.24C417.74 462.95 416.15 460.47 416 460.24C413.57 457.24 407.11 452.85 403.07 454.41C402.406 454.686 401.809 455.099 401.315 455.622C400.822 456.144 400.444 456.765 400.206 457.443C399.969 458.121 399.876 458.842 399.936 459.558C399.995 460.274 400.204 460.97 400.55 461.6C401.93 464.33 405.41 465.77 408.25 466.29C411.38 466.85 417.97 465.21 418.79 465C419.42 466.95 420.03 468.85 420.57 470.66C421.57 473.86 422.35 476.8 423.04 479.4H425.91C425.12 476.61 424.16 473.4 423.01 469.89C422.37 467.89 421.65 465.8 420.89 463.65C422.806 462.606 424.659 461.45 426.44 460.19C428.92 462.31 434.89 464.42 435.66 464.69C435.12 466.69 434.57 468.59 434.03 470.39C433.03 473.74 432.03 476.77 431.14 479.39H434.05C434.82 476.91 435.65 474.15 436.49 471.09C437.05 469.09 437.61 466.93 438.16 464.71C438.99 464.79 445.77 465.34 448.77 464.28C451.49 463.28 454.69 461.28 455.61 458.42C455.851 457.742 455.947 457.021 455.891 456.304C455.836 455.587 455.629 454.889 455.286 454.257C454.942 453.625 454.469 453.072 453.898 452.635C453.327 452.198 452.67 451.886 451.97 451.72C447.73 450.84 442.06 456.2 440.15 459.56C440.04 459.76 439.05 462.05 438.46 463.5C438.68 462.6 438.9 461.72 439.12 460.78C439.56 458.93 439.94 457.07 440.36 455.07L440.87 452.13C441.07 451.13 441.15 450.13 441.29 449.06C441.56 446.66 441.73 444.23 441.84 441.77C443.46 442.15 449.24 443.42 452.09 442.87C454.94 442.32 458.39 440.87 459.74 438.11C460.079 437.476 460.28 436.778 460.332 436.061C460.384 435.344 460.285 434.625 460.041 433.949C459.796 433.273 459.413 432.655 458.915 432.137C458.417 431.619 457.815 431.211 457.15 430.94C453.15 429.43 446.68 433.87 444.28 436.94C444.13 437.13 442.65 439.5 441.87 440.82C441.92 439.34 441.99 437.82 441.99 436.36C441.99 432.04 441.9 427.66 441.81 423.29C441.81 421.95 441.81 420.62 441.75 419.29C442.33 419.44 449.16 421.09 452.35 420.49C455.19 419.94 458.65 418.49 460 415.73C460.341 415.096 460.544 414.398 460.598 413.681C460.651 412.963 460.553 412.242 460.31 411.565C460.066 410.888 459.683 410.27 459.185 409.75C458.688 409.231 458.086 408.822 457.42 408.55C453.36 407.04 446.94 411.49 444.55 414.55C444.36 414.78 442.24 418.19 441.75 419.08C441.75 416.14 441.7 413.21 441.8 410.32C441.932 406.417 442.31 402.526 442.93 398.67C443.2 398.74 450.32 400.5 453.59 399.88C456.43 399.34 459.89 397.88 461.25 395.12C461.589 394.486 461.79 393.788 461.842 393.071C461.894 392.354 461.795 391.635 461.55 390.959C461.306 390.283 460.923 389.665 460.425 389.147C459.927 388.629 459.325 388.221 458.66 387.95C454.6 386.43 448.19 390.88 445.79 393.95C445.63 394.15 444.01 396.75 443.27 398L443.04 397.91C443.779 394.052 444.86 390.267 446.27 386.6C447.02 384.6 447.85 382.67 448.7 380.84C449.99 381.3 455.92 383.36 458.93 383.13C461.94 382.9 465.41 381.81 467.06 379.24C467.468 378.647 467.746 377.974 467.877 377.266C468.008 376.558 467.988 375.831 467.819 375.131C467.65 374.431 467.336 373.775 466.897 373.204C466.458 372.634 465.903 372.162 465.27 371.82C461.41 369.87 454.54 373.59 451.83 376.34C451.68 376.49 450.34 378.17 449.39 379.41C449.79 378.59 450.18 377.74 450.57 376.96C452.05 374.04 453.57 371.46 454.96 369.18C455.75 367.89 456.49 366.74 457.2 365.67C458.7 365.47 464.77 364.56 467.28 362.99C469.79 361.42 472.42 358.84 472.7 355.79C472.79 355.076 472.728 354.352 472.519 353.664C472.31 352.976 471.958 352.339 471.486 351.796C471.014 351.254 470.433 350.817 469.78 350.514C469.128 350.211 468.419 350.05 467.7 350.04C463.37 350.09 458.99 356.55 457.84 360.24C457.75 360.56 456.77 365.73 456.84 365.72H456.93C456.23 366.72 455.49 367.83 454.71 369.04C453.28 371.29 451.71 373.85 450.14 376.75C448.444 379.861 446.928 383.066 445.6 386.35C444.1 390.023 442.926 393.821 442.09 397.7C442.09 397.7 442.09 397.79 442.09 397.84C441.96 396.58 441.49 393.06 441.42 392.84C440.48 389.1 436.42 382.41 432.12 382.13C431.402 382.104 430.687 382.23 430.02 382.499C429.354 382.768 428.752 383.174 428.253 383.691C427.754 384.208 427.37 384.824 427.124 385.499C426.879 386.174 426.779 386.893 426.83 387.61C426.94 390.67 429.49 393.43 431.83 395.09C434.49 396.96 441.44 398.25 441.99 398.35C441.241 402.313 440.76 406.322 440.55 410.35C440.41 412.7 440.35 415.07 440.31 417.45C440.17 416.36 440.03 415.39 439.99 415.26C439.05 411.51 434.99 404.82 430.7 404.54C429.98 404.513 429.263 404.638 428.595 404.907C427.927 405.175 427.323 405.582 426.823 406.1C426.322 406.618 425.937 407.236 425.692 407.913C425.447 408.591 425.347 409.312 425.4 410.03C425.51 413.08 428.06 415.85 430.4 417.5C432.74 419.15 438.7 420.4 440.26 420.7C440.26 421.61 440.26 422.53 440.26 423.44C440.26 427.81 440.26 432.18 440.16 436.44C440.16 437.95 440.03 439.44 439.94 440.92C439.81 439.92 439.69 439.15 439.66 439.02C438.71 435.27 434.66 428.59 430.36 428.31C429.641 428.283 428.925 428.408 428.257 428.676C427.59 428.944 426.987 429.35 426.487 429.867C425.986 430.384 425.601 431.001 425.355 431.676C425.109 432.352 425.009 433.073 425.06 433.79C425.17 436.85 427.73 439.61 430.06 441.27C432.39 442.93 437.78 444.05 439.64 444.41C439.5 445.93 439.37 447.41 439.17 448.92C439.01 449.92 438.92 450.92 438.71 451.92C438.5 452.92 438.32 453.92 438.13 454.86C437.69 456.71 437.26 458.62 436.79 460.42C436.47 461.67 436.15 462.86 435.79 464.05C435.85 462.55 435.9 459.61 435.88 459.36C435.423 455.991 434.115 452.793 432.08 450.07C432.048 449.691 431.981 449.316 431.88 448.95C431.706 448.253 431.387 447.6 430.945 447.033C430.502 446.467 429.946 446 429.311 445.662C428.677 445.325 427.979 445.124 427.262 445.074C426.545 445.024 425.825 445.125 425.15 445.37C421.15 446.97 419.36 454.58 419.61 458.44C419.61 458.66 420.07 461.11 420.38 462.66C420.06 461.78 419.76 460.92 419.38 460.02C418.73 458.23 418.03 456.47 417.27 454.57L416.08 451.83C415.7 450.91 415.18 449.98 414.73 449.05C413.64 446.9 412.43 444.77 411.17 442.66C412.73 442.08 418.25 439.95 420.32 437.93C422.39 435.91 424.46 432.77 424.08 429.74C424.015 429.024 423.8 428.329 423.449 427.701C423.099 427.073 422.619 426.526 422.043 426.096C421.466 425.666 420.806 425.362 420.104 425.204C419.402 425.046 418.675 425.038 417.97 425.18C413.75 426.18 410.85 433.41 410.52 437.26C410.52 437.5 410.57 440.26 410.64 441.82C409.87 440.56 409.11 439.29 408.29 438.04C405.92 434.42 403.42 430.83 400.93 427.23C400.17 426.13 399.42 425.03 398.67 423.92C399.23 423.72 405.84 421.34 408.17 419.07C410.23 417.07 412.31 413.91 411.92 410.88C411.855 410.164 411.64 409.469 411.289 408.841C410.938 408.213 410.459 407.666 409.883 407.236C409.306 406.806 408.646 406.502 407.944 406.344C407.242 406.186 406.515 406.178 405.81 406.32C401.59 407.32 398.69 414.55 398.36 418.4C398.36 418.69 398.45 422.7 398.53 423.72C396.88 421.29 395.25 418.85 393.75 416.38C391.695 413.061 389.861 409.61 388.26 406.05C388.52 405.95 395.43 403.49 397.82 401.17C399.88 399.17 401.96 396.01 401.57 392.98C401.505 392.264 401.291 391.569 400.94 390.942C400.589 390.314 400.109 389.768 399.532 389.339C398.956 388.909 398.295 388.606 397.593 388.45C396.891 388.293 396.164 388.286 395.46 388.43C391.24 389.43 388.34 396.65 388.01 400.5C388.01 400.75 388.08 403.81 388.15 405.27L387.91 405.32C386.429 401.658 385.284 397.869 384.49 394C383.99 391.89 383.64 389.85 383.34 387.86C384.67 387.53 390.76 385.98 393.13 384.12C395.5 382.26 397.81 379.45 397.77 376.39C397.782 375.671 397.644 374.958 397.363 374.296C397.081 373.635 396.664 373.04 396.138 372.55C395.611 372.061 394.988 371.687 394.307 371.455C393.627 371.222 392.906 371.135 392.19 371.2C387.89 371.7 384.19 378.59 383.46 382.38C383.46 382.58 383.24 384.73 383.13 386.29C383.01 385.39 382.87 384.46 382.77 383.59C382.39 380.34 382.24 377.34 382.13 374.68C382.08 373.17 382.06 371.8 382.06 370.52C383.2 369.52 387.76 365.41 388.99 362.72C390.22 360.03 390.99 356.42 389.54 353.72C389.217 353.08 388.763 352.514 388.207 352.061C387.651 351.607 387.007 351.275 386.315 351.087C385.623 350.898 384.899 350.857 384.19 350.966C383.481 351.075 382.803 351.332 382.2 351.72C378.61 354.14 378.52 361.95 379.6 365.66C379.7 365.98 381.74 370.83 381.8 370.78L381.87 370.72C381.87 371.95 381.87 373.27 381.87 374.72C381.87 377.38 382 380.4 382.31 383.67C382.612 387.199 383.116 390.708 383.82 394.18C384.592 398.071 385.706 401.886 387.15 405.58L387.21 405.71C386.41 404.71 384.07 402.06 383.87 401.87C381.01 399.27 373.96 395.87 370.21 398.07C369.596 398.444 369.067 398.943 368.659 399.534C368.251 400.125 367.971 400.796 367.839 401.503C367.707 402.209 367.725 402.936 367.892 403.635C368.06 404.334 368.372 404.99 368.81 405.56C370.59 408.05 374.24 408.95 377.13 409.02C380.39 409.11 386.89 406.35 387.41 406.13C388.972 409.854 390.783 413.469 392.83 416.95C394.01 418.95 395.27 421 396.55 423C395.83 422.17 395.18 421.44 395.08 421.34C392.22 418.74 385.17 415.34 381.41 417.54C380.798 417.912 380.272 418.408 379.864 418.997C379.457 419.585 379.178 420.253 379.045 420.956C378.912 421.66 378.928 422.383 379.093 423.08C379.257 423.776 379.566 424.43 380 425C381.77 427.49 385.43 428.39 388.32 428.46C391.21 428.53 396.83 426.31 398.32 425.69L399.8 428C402.21 431.66 404.63 435.29 406.9 438.92C407.7 440.21 408.44 441.5 409.19 442.79C408.54 442.05 408 441.44 407.9 441.35C405.05 438.75 398 435.4 394.24 437.55C393.626 437.924 393.097 438.423 392.689 439.014C392.281 439.605 392.001 440.276 391.869 440.983C391.737 441.689 391.755 442.416 391.922 443.115C392.09 443.814 392.402 444.47 392.84 445.04C394.62 447.53 398.28 448.43 401.17 448.5C404.06 448.57 409.14 446.52 410.89 445.8Z" fill="#263238"/>
<path opacity="0.3" d="M371.91 387.42C375.15 388.42 382.68 387.34 382.68 387.34C382.68 387.34 380.48 382.59 380.3 382.34C378.23 379.07 372.3 373.98 368.12 375.06C367.429 375.259 366.788 375.602 366.238 376.065C365.688 376.528 365.243 377.102 364.929 377.749C364.616 378.396 364.443 379.102 364.42 379.821C364.398 380.539 364.527 381.255 364.8 381.92C365.86 384.76 369.14 386.59 371.91 387.42Z" fill="#263238"/>
<path opacity="0.3" d="M448.43 380C448.5 380 449.21 374.82 449.21 374.49C449.29 370.62 447.21 363.11 443.07 361.7C442.384 361.484 441.661 361.415 440.947 361.498C440.232 361.581 439.544 361.813 438.925 362.18C438.307 362.547 437.773 363.041 437.359 363.628C436.944 364.216 436.659 364.884 436.52 365.59C435.82 368.59 437.52 371.91 439.39 374.13C441.56 376.75 448.42 380 448.43 380Z" fill="#263238"/>
<path opacity="0.3" d="M410.89 445.8C411.61 447.14 412.34 448.49 412.98 449.8C413.4 450.72 413.86 451.58 414.23 452.53L415.37 455.29C416.03 457.08 416.72 458.92 417.32 460.67C417.74 461.89 418.13 463.06 418.52 464.24C417.74 462.95 416.15 460.47 416 460.24C413.57 457.24 407.11 452.85 403.07 454.41C402.406 454.686 401.809 455.099 401.315 455.622C400.822 456.144 400.444 456.765 400.206 457.443C399.969 458.121 399.876 458.842 399.936 459.558C399.995 460.274 400.204 460.97 400.55 461.6C401.93 464.33 405.41 465.77 408.25 466.29C411.38 466.85 417.97 465.21 418.79 465C419.42 466.95 420.03 468.85 420.57 470.66C421.57 473.86 422.35 476.8 423.04 479.4H425.91C425.12 476.61 424.16 473.4 423.01 469.89C422.37 467.89 421.65 465.8 420.89 463.65C422.806 462.606 424.659 461.45 426.44 460.19C428.92 462.31 434.89 464.42 435.66 464.69C435.12 466.69 434.57 468.59 434.03 470.39C433.03 473.74 432.03 476.77 431.14 479.39H434.05C434.82 476.91 435.65 474.15 436.49 471.09C437.05 469.09 437.61 466.93 438.16 464.71C438.99 464.79 445.77 465.34 448.77 464.28C451.49 463.28 454.69 461.28 455.61 458.42C455.851 457.742 455.947 457.021 455.891 456.304C455.836 455.587 455.629 454.889 455.286 454.257C454.942 453.625 454.469 453.072 453.898 452.635C453.327 452.198 452.67 451.886 451.97 451.72C447.73 450.84 442.06 456.2 440.15 459.56C440.04 459.76 439.05 462.05 438.46 463.5C438.68 462.6 438.9 461.72 439.12 460.78C439.56 458.93 439.94 457.07 440.36 455.07L440.87 452.13C441.07 451.13 441.15 450.13 441.29 449.06C441.56 446.66 441.73 444.23 441.84 441.77C443.46 442.15 449.24 443.42 452.09 442.87C454.94 442.32 458.39 440.87 459.74 438.11C460.079 437.476 460.28 436.778 460.332 436.061C460.384 435.344 460.285 434.625 460.041 433.949C459.796 433.273 459.413 432.655 458.915 432.137C458.417 431.619 457.815 431.211 457.15 430.94C453.15 429.43 446.68 433.87 444.28 436.94C444.13 437.13 442.65 439.5 441.87 440.82C441.92 439.34 441.99 437.82 441.99 436.36C441.99 432.04 441.9 427.66 441.81 423.29C441.81 421.95 441.81 420.62 441.75 419.29C442.33 419.44 449.16 421.09 452.35 420.49C455.19 419.94 458.65 418.49 460 415.73C460.341 415.096 460.544 414.398 460.598 413.681C460.651 412.963 460.553 412.242 460.31 411.565C460.066 410.888 459.683 410.27 459.185 409.75C458.688 409.231 458.086 408.822 457.42 408.55C453.36 407.04 446.94 411.49 444.55 414.55C444.36 414.78 442.24 418.19 441.75 419.08C441.75 416.14 441.7 413.21 441.8 410.32C441.932 406.417 442.31 402.526 442.93 398.67C443.2 398.74 450.32 400.5 453.59 399.88C456.43 399.34 459.89 397.88 461.25 395.12C461.589 394.486 461.79 393.788 461.842 393.071C461.894 392.354 461.795 391.635 461.55 390.959C461.306 390.283 460.923 389.665 460.425 389.147C459.927 388.629 459.325 388.221 458.66 387.95C454.6 386.43 448.19 390.88 445.79 393.95C445.63 394.15 444.01 396.75 443.27 398L443.04 397.91C443.779 394.052 444.86 390.267 446.27 386.6C447.02 384.6 447.85 382.67 448.7 380.84C449.99 381.3 455.92 383.36 458.93 383.13C461.94 382.9 465.41 381.81 467.06 379.24C467.468 378.647 467.746 377.974 467.877 377.266C468.008 376.558 467.988 375.831 467.819 375.131C467.65 374.431 467.336 373.775 466.897 373.204C466.458 372.634 465.903 372.162 465.27 371.82C461.41 369.87 454.54 373.59 451.83 376.34C451.68 376.49 450.34 378.17 449.39 379.41C449.79 378.59 450.18 377.74 450.57 376.96C452.05 374.04 453.57 371.46 454.96 369.18C455.75 367.89 456.49 366.74 457.2 365.67C458.7 365.47 464.77 364.56 467.28 362.99C469.79 361.42 472.42 358.84 472.7 355.79C472.79 355.076 472.728 354.352 472.519 353.664C472.31 352.976 471.958 352.339 471.486 351.796C471.014 351.254 470.433 350.817 469.78 350.514C469.128 350.211 468.419 350.05 467.7 350.04C463.37 350.09 458.99 356.55 457.84 360.24C457.75 360.56 456.77 365.73 456.84 365.72H456.93C456.23 366.72 455.49 367.83 454.71 369.04C453.28 371.29 451.71 373.85 450.14 376.75C448.444 379.861 446.928 383.066 445.6 386.35C444.1 390.023 442.926 393.821 442.09 397.7C442.09 397.7 442.09 397.79 442.09 397.84C441.96 396.58 441.49 393.06 441.42 392.84C440.48 389.1 436.42 382.41 432.12 382.13C431.402 382.104 430.687 382.23 430.02 382.499C429.354 382.768 428.752 383.174 428.253 383.691C427.754 384.208 427.37 384.824 427.124 385.499C426.879 386.174 426.779 386.893 426.83 387.61C426.94 390.67 429.49 393.43 431.83 395.09C434.49 396.96 441.44 398.25 441.99 398.35C441.241 402.313 440.76 406.322 440.55 410.35C440.41 412.7 440.35 415.07 440.31 417.45C440.17 416.36 440.03 415.39 439.99 415.26C439.05 411.51 434.99 404.82 430.7 404.54C429.98 404.513 429.263 404.638 428.595 404.907C427.927 405.175 427.323 405.582 426.823 406.1C426.322 406.618 425.937 407.236 425.692 407.913C425.447 408.591 425.347 409.312 425.4 410.03C425.51 413.08 428.06 415.85 430.4 417.5C432.74 419.15 438.7 420.4 440.26 420.7C440.26 421.61 440.26 422.53 440.26 423.44C440.26 427.81 440.26 432.18 440.16 436.44C440.16 437.95 440.03 439.44 439.94 440.92C439.81 439.92 439.69 439.15 439.66 439.02C438.71 435.27 434.66 428.59 430.36 428.31C429.641 428.283 428.925 428.408 428.257 428.676C427.59 428.944 426.987 429.35 426.487 429.867C425.986 430.384 425.601 431.001 425.355 431.676C425.109 432.352 425.009 433.073 425.06 433.79C425.17 436.85 427.73 439.61 430.06 441.27C432.39 442.93 437.78 444.05 439.64 444.41C439.5 445.93 439.37 447.41 439.17 448.92C439.01 449.92 438.92 450.92 438.71 451.92C438.5 452.92 438.32 453.92 438.13 454.86C437.69 456.71 437.26 458.62 436.79 460.42C436.47 461.67 436.15 462.86 435.79 464.05C435.85 462.55 435.9 459.61 435.88 459.36C435.423 455.991 434.115 452.793 432.08 450.07C432.048 449.691 431.981 449.316 431.88 448.95C431.706 448.253 431.387 447.6 430.945 447.033C430.502 446.467 429.946 446 429.311 445.662C428.677 445.325 427.979 445.124 427.262 445.074C426.545 445.024 425.825 445.125 425.15 445.37C421.15 446.97 419.36 454.58 419.61 458.44C419.61 458.66 420.07 461.11 420.38 462.66C420.06 461.78 419.76 460.92 419.38 460.02C418.73 458.23 418.03 456.47 417.27 454.57L416.08 451.83C415.7 450.91 415.18 449.98 414.73 449.05C413.64 446.9 412.43 444.77 411.17 442.66C412.73 442.08 418.25 439.95 420.32 437.93C422.39 435.91 424.46 432.77 424.08 429.74C424.015 429.024 423.8 428.329 423.449 427.701C423.099 427.073 422.619 426.526 422.043 426.096C421.466 425.666 420.806 425.362 420.104 425.204C419.402 425.046 418.675 425.038 417.97 425.18C413.75 426.18 410.85 433.41 410.52 437.26C410.52 437.5 410.57 440.26 410.64 441.82C409.87 440.56 409.11 439.29 408.29 438.04C405.92 434.42 403.42 430.83 400.93 427.23C400.17 426.13 399.42 425.03 398.67 423.92C399.23 423.72 405.84 421.34 408.17 419.07C410.23 417.07 412.31 413.91 411.92 410.88C411.855 410.164 411.64 409.469 411.289 408.841C410.938 408.213 410.459 407.666 409.883 407.236C409.306 406.806 408.646 406.502 407.944 406.344C407.242 406.186 406.515 406.178 405.81 406.32C401.59 407.32 398.69 414.55 398.36 418.4C398.36 418.69 398.45 422.7 398.53 423.72C396.88 421.29 395.25 418.85 393.75 416.38C391.695 413.061 389.861 409.61 388.26 406.05C388.52 405.95 395.43 403.49 397.82 401.17C399.88 399.17 401.96 396.01 401.57 392.98C401.505 392.264 401.291 391.569 400.94 390.942C400.589 390.314 400.109 389.768 399.532 389.339C398.956 388.909 398.295 388.606 397.593 388.45C396.891 388.293 396.164 388.286 395.46 388.43C391.24 389.43 388.34 396.65 388.01 400.5C388.01 400.75 388.08 403.81 388.15 405.27L387.91 405.32C386.429 401.658 385.284 397.869 384.49 394C383.99 391.89 383.64 389.85 383.34 387.86C384.67 387.53 390.76 385.98 393.13 384.12C395.5 382.26 397.81 379.45 397.77 376.39C397.782 375.671 397.644 374.958 397.363 374.296C397.081 373.635 396.664 373.04 396.138 372.55C395.611 372.061 394.988 371.687 394.307 371.455C393.627 371.222 392.906 371.135 392.19 371.2C387.89 371.7 384.19 378.59 383.46 382.38C383.46 382.58 383.24 384.73 383.13 386.29C383.01 385.39 382.87 384.46 382.77 383.59C382.39 380.34 382.24 377.34 382.13 374.68C382.08 373.17 382.06 371.8 382.06 370.52C383.2 369.52 387.76 365.41 388.99 362.72C390.22 360.03 390.99 356.42 389.54 353.72C389.217 353.08 388.763 352.514 388.207 352.061C387.651 351.607 387.007 351.275 386.315 351.087C385.623 350.898 384.899 350.857 384.19 350.966C383.481 351.075 382.803 351.332 382.2 351.72C378.61 354.14 378.52 361.95 379.6 365.66C379.7 365.98 381.74 370.83 381.8 370.78L381.87 370.72C381.87 371.95 381.87 373.27 381.87 374.72C381.87 377.38 382 380.4 382.31 383.67C382.612 387.199 383.116 390.708 383.82 394.18C384.592 398.071 385.706 401.886 387.15 405.58L387.21 405.71C386.41 404.71 384.07 402.06 383.87 401.87C381.01 399.27 373.96 395.87 370.21 398.07C369.596 398.444 369.067 398.943 368.659 399.534C368.251 400.125 367.971 400.796 367.839 401.503C367.707 402.209 367.725 402.936 367.892 403.635C368.06 404.334 368.372 404.99 368.81 405.56C370.59 408.05 374.24 408.95 377.13 409.02C380.39 409.11 386.89 406.35 387.41 406.13C388.972 409.854 390.783 413.469 392.83 416.95C394.01 418.95 395.27 421 396.55 423C395.83 422.17 395.18 421.44 395.08 421.34C392.22 418.74 385.17 415.34 381.41 417.54C380.798 417.912 380.272 418.408 379.864 418.997C379.457 419.585 379.178 420.253 379.045 420.956C378.912 421.66 378.928 422.383 379.093 423.08C379.257 423.776 379.566 424.43 380 425C381.77 427.49 385.43 428.39 388.32 428.46C391.21 428.53 396.83 426.31 398.32 425.69L399.8 428C402.21 431.66 404.63 435.29 406.9 438.92C407.7 440.21 408.44 441.5 409.19 442.79C408.54 442.05 408 441.44 407.9 441.35C405.05 438.75 398 435.4 394.24 437.55C393.626 437.924 393.097 438.423 392.689 439.014C392.281 439.605 392.001 440.276 391.869 440.983C391.737 441.689 391.755 442.416 391.922 443.115C392.09 443.814 392.402 444.47 392.84 445.04C394.62 447.53 398.28 448.43 401.17 448.5C404.06 448.57 409.14 446.52 410.89 445.8Z" fill="#263238"/>
<path d="M105 420.42C105 420.42 105.46 417.35 105.47 417.15C105.47 414.86 104.25 410.4 101.82 409.56C101.413 409.426 100.982 409.381 100.555 409.427C100.129 409.474 99.718 409.611 99.3494 409.83C98.9807 410.049 98.6633 410.344 98.4185 410.696C98.1736 411.048 98.0071 411.448 97.93 411.87C97.52 413.64 98.54 415.62 99.64 416.94C100.93 418.49 105 420.42 105 420.42Z" fill="#263238"/>
<path d="M59.59 424.83C61.51 425.41 65.98 424.78 65.98 424.77C65.98 424.76 64.67 421.96 64.57 421.77C63.34 419.83 59.83 416.77 57.34 417.45C56.9241 417.559 56.5365 417.757 56.2036 418.029C55.8707 418.302 55.6002 418.642 55.4105 419.028C55.2209 419.414 55.1164 419.837 55.1042 420.266C55.0921 420.696 55.1725 421.124 55.34 421.52C56 423.24 58 424.33 59.59 424.83Z" fill="#263238"/>
<path d="M82.7301 459.48C83.1601 460.28 83.5901 461.08 83.9701 461.87C84.2201 462.41 84.4901 462.92 84.7101 463.49C84.9301 464.06 85.1601 464.59 85.3901 465.13C85.7801 466.19 86.1901 467.28 86.5401 468.32C86.8001 469.04 87.0301 469.74 87.2601 470.44C86.7901 469.67 85.8501 468.2 85.7601 468.09C84.3201 466.3 80.4801 463.7 78.0901 464.62C77.6955 464.785 77.3398 465.031 77.0464 465.342C76.7529 465.653 76.5282 466.022 76.3867 466.426C76.2452 466.829 76.1903 467.258 76.2253 467.685C76.2604 468.111 76.3847 468.525 76.5901 468.9C77.4101 470.52 79.4801 471.37 81.1601 471.68C83.0201 472.01 86.9301 471.04 87.4201 470.91C87.8001 472.07 88.1501 473.2 88.4201 474.27C89.0001 476.17 89.4801 477.92 89.8901 479.46H91.6001C91.1201 477.8 90.6001 475.91 89.8801 473.82C89.5001 472.64 89.0701 471.39 88.6101 470.11C89.752 469.493 90.8541 468.805 91.9101 468.05C93.3801 469.31 96.9101 470.57 97.3901 470.73C97.0601 471.9 96.7401 473.04 96.3901 474.11C95.8001 476.11 95.2101 477.9 94.6801 479.46H96.4001C96.8601 477.99 97.4001 476.35 97.8601 474.54C98.1901 473.35 98.5201 472.07 98.8601 470.75C99.3501 470.75 103.37 471.12 105.15 470.49C106.77 469.92 108.67 468.74 109.22 467.01C109.374 466.606 109.439 466.174 109.41 465.743C109.381 465.311 109.26 464.892 109.054 464.512C108.847 464.132 108.562 463.801 108.216 463.542C107.87 463.283 107.473 463.101 107.05 463.01C104.54 462.48 101.17 465.67 100.05 467.66C99.9801 467.78 99.4001 469.14 99.0501 470C99.1801 469.46 99.3201 468.94 99.4501 468.38C99.7101 467.29 99.9301 466.18 100.18 464.99C100.28 464.42 100.39 463.83 100.49 463.25C100.59 462.67 100.65 462.04 100.73 461.42C100.9 460 101 458.56 101.06 457.1C102.06 457.32 105.45 458.1 107.14 457.75C108.83 457.4 110.88 456.56 111.69 454.93C111.899 454.555 112.026 454.139 112.06 453.711C112.095 453.283 112.037 452.853 111.891 452.449C111.745 452.045 111.514 451.677 111.214 451.37C110.914 451.063 110.551 450.825 110.15 450.67C107.74 449.77 103.93 452.41 102.51 454.21C102.42 454.32 101.51 455.73 101.08 456.51C101.08 455.63 101.15 454.76 101.15 453.87C101.15 451.3 101.15 448.7 101.04 446.11V443.73C101.38 443.81 105.44 444.8 107.33 444.43C109.01 444.11 111.07 443.24 111.87 441.61C112.08 441.236 112.206 440.821 112.242 440.393C112.277 439.965 112.22 439.535 112.075 439.132C111.93 438.728 111.7 438.36 111.401 438.052C111.102 437.745 110.74 437.506 110.34 437.35C107.93 436.45 104.12 439.09 102.7 440.89C102.59 441.03 101.33 443.05 101.04 443.58C101.04 441.84 101.04 440.1 101.04 438.38C101.113 436.065 101.337 433.756 101.71 431.47C101.87 431.47 106.1 432.55 108.04 432.18C109.72 431.86 111.78 430.99 112.58 429.36C112.79 428.986 112.916 428.571 112.952 428.143C112.987 427.715 112.93 427.285 112.785 426.882C112.64 426.478 112.41 426.11 112.111 425.802C111.812 425.495 111.45 425.256 111.05 425.1C108.64 424.2 104.83 426.84 103.4 428.64C103.31 428.76 102.4 430.3 101.91 431.04L101.77 430.99C102.212 428.698 102.855 426.449 103.69 424.27C104.14 423.07 104.63 421.94 105.13 420.86C105.9 421.13 109.42 422.35 111.21 422.21C113 422.07 115.05 421.43 116.03 419.91C116.279 419.56 116.449 419.162 116.531 418.74C116.612 418.319 116.602 417.886 116.502 417.469C116.401 417.052 116.213 416.661 115.949 416.323C115.684 415.985 115.351 415.708 114.97 415.51C112.68 414.35 108.6 416.51 106.97 418.18C106.88 418.27 106.09 419.27 105.52 420.01C105.76 419.52 105.99 419.01 106.23 418.56C107.1 416.82 108.01 415.29 108.83 413.94C109.3 413.17 109.74 412.49 110.16 411.85C111.05 411.73 114.65 411.19 116.16 410.26C117.67 409.33 119.22 407.8 119.38 405.99C119.441 405.562 119.408 405.127 119.285 404.713C119.161 404.299 118.95 403.916 118.665 403.592C118.38 403.267 118.029 403.007 117.634 402.831C117.24 402.655 116.812 402.566 116.38 402.57C113.81 402.57 111.21 406.44 110.53 408.63C110.47 408.82 109.9 411.89 109.94 411.88H110C109.58 412.49 109.14 413.14 108.68 413.88C107.83 415.21 106.88 416.73 105.97 418.46C104.958 420.302 104.057 422.202 103.27 424.15C102.378 426.33 101.682 428.586 101.19 430.89C101.19 430.89 101.19 430.95 101.19 430.97C101.12 430.22 100.84 428.14 100.8 427.97C100.24 425.74 97.8001 421.77 95.2801 421.61C94.8518 421.587 94.4235 421.656 94.0242 421.813C93.6248 421.969 93.2637 422.21 92.9651 422.518C92.6666 422.826 92.4376 423.194 92.2935 423.598C92.1495 424.002 92.0938 424.433 92.1301 424.86C92.2001 426.68 93.7101 428.32 95.1301 429.3C96.7101 430.41 100.83 431.18 101.13 431.24C100.69 433.595 100.406 435.977 100.28 438.37C100.2 439.76 100.16 441.17 100.14 442.58C100.05 441.93 99.9701 441.36 99.9501 441.28C99.3901 439.05 96.9501 435.08 94.4301 434.92C94.0018 434.897 93.5735 434.966 93.1742 435.123C92.7748 435.279 92.4137 435.52 92.1151 435.828C91.8166 436.136 91.5876 436.504 91.4435 436.908C91.2995 437.312 91.2438 437.743 91.2801 438.17C91.3501 439.99 92.8601 441.63 94.2801 442.61C95.7001 443.59 99.2001 444.33 100.13 444.51C100.13 445.05 100.13 445.59 100.13 446.13C100.13 448.73 100.13 451.32 100.07 453.87C100.07 454.76 99.9901 455.65 99.9401 456.53C99.8601 455.95 99.7901 455.47 99.7701 455.4C99.2101 453.17 96.8201 449.2 94.2501 449.04C93.8226 449.018 93.3954 449.089 92.9973 449.246C92.5992 449.403 92.2393 449.644 91.9419 449.952C91.6444 450.26 91.4163 450.627 91.2729 451.031C91.1294 451.434 91.0739 451.863 91.1101 452.29C91.1801 454.11 92.6901 455.75 94.1101 456.73C95.5301 457.71 98.6901 458.38 99.7901 458.6C99.7101 459.5 99.6301 460.4 99.5101 461.27C99.4201 461.87 99.3701 462.44 99.2401 463.03C99.1101 463.62 99.0101 464.2 98.8901 464.78C98.6401 465.87 98.3801 467.01 98.1001 468.08C97.9101 468.82 97.7201 469.52 97.5201 470.23C97.5201 469.34 97.5901 467.6 97.5201 467.45C97.2593 465.447 96.4841 463.545 95.2701 461.93C95.2496 461.707 95.2094 461.486 95.1501 461.27C95.0529 460.852 94.8672 460.46 94.6055 460.12C94.3438 459.78 94.0121 459.5 93.633 459.299C93.2539 459.098 92.8361 458.981 92.4077 458.955C91.9794 458.929 91.5506 458.996 91.1501 459.15C88.7701 460.1 87.7201 464.61 87.8701 466.9C87.8701 467.04 88.1401 468.49 88.3201 469.4C88.1301 468.88 87.9601 468.4 87.7601 467.84C87.3701 466.78 86.9501 465.73 86.5101 464.61L85.8801 463C85.6601 462.45 85.3501 461.9 85.0801 461.34C84.4401 460.07 83.7201 458.81 82.9701 457.55C83.9001 457.21 87.1701 455.95 88.4001 454.75C89.6301 453.55 90.8601 451.68 90.6401 449.88C90.6071 449.453 90.4828 449.037 90.2757 448.662C90.0686 448.286 89.7835 447.96 89.4395 447.704C89.0955 447.448 88.7007 447.269 88.2816 447.179C87.8626 447.088 87.429 447.089 87.0101 447.18C84.5001 447.76 82.7801 452.06 82.5901 454.35C82.5901 454.49 82.5901 456.15 82.6601 457.06C82.2001 456.31 81.7501 455.55 81.2601 454.81C79.8601 452.66 78.3701 450.53 76.8901 448.4L75.5501 446.4C75.8801 446.28 79.8101 444.87 81.1901 443.52C82.5701 442.17 83.6501 440.46 83.4201 438.66C83.3742 438.239 83.2412 437.833 83.0296 437.466C82.818 437.099 82.5323 436.781 82.1909 436.531C81.8495 436.28 81.4597 436.104 81.0464 436.013C80.633 435.921 80.2052 435.917 79.7901 436C77.2901 436.58 75.5601 440.89 75.3701 443.17C75.3701 443.34 75.3701 445.73 75.4701 446.33C74.4701 444.89 73.4701 443.44 72.6301 441.98C71.4095 440.007 70.3204 437.956 69.3701 435.84C69.5301 435.78 73.6301 434.32 75.0501 432.95C76.2701 431.75 77.5001 429.88 77.2801 428.08C77.2471 427.653 77.1228 427.237 76.9157 426.862C76.7086 426.486 76.4235 426.16 76.0795 425.904C75.7355 425.648 75.3407 425.469 74.9216 425.379C74.5026 425.288 74.069 425.289 73.6501 425.38C71.1401 425.96 69.4201 430.26 69.2301 432.55C69.2301 432.7 69.2301 434.55 69.3101 435.38H69.1601C68.2624 433.227 67.5596 430.998 67.0601 428.72C66.7601 427.47 66.5501 426.26 66.3701 425.07C67.1701 424.88 70.7801 423.95 72.1901 422.85C73.6001 421.75 74.9701 420.08 74.9401 418.27C74.9553 417.841 74.8783 417.414 74.7143 417.017C74.5502 416.621 74.303 416.264 73.9892 415.971C73.6755 415.678 73.3025 415.456 72.8955 415.319C72.4885 415.183 72.057 415.135 71.6301 415.18C69.0801 415.48 66.8901 419.57 66.4501 421.82C66.4501 421.94 66.3101 423.21 66.2501 424.14C66.1801 423.6 66.0901 423.05 66.0301 422.54C65.8101 420.61 65.7201 418.83 65.6501 417.25C65.6501 416.35 65.6501 415.54 65.6501 414.78C66.3301 414.18 69.0401 411.78 69.7701 410.15C70.5001 408.52 70.9601 406.41 70.1001 404.81C69.9093 404.427 69.6402 404.089 69.3102 403.817C68.9802 403.545 68.5967 403.346 68.1846 403.232C67.7725 403.118 67.3411 403.091 66.9182 403.155C66.4954 403.218 66.0906 403.37 65.7301 403.6C63.6101 405.04 63.5501 409.67 64.2001 411.88C64.2001 412.07 65.4601 414.95 65.5001 414.88C65.5001 415.61 65.5001 416.4 65.5001 417.25C65.5001 418.84 65.5801 420.62 65.7601 422.57C65.936 424.666 66.2366 426.75 66.6601 428.81C67.1181 431.12 67.7876 433.383 68.6601 435.57V435.65C68.1801 435.07 66.8001 433.48 66.6601 433.37C64.9601 431.83 60.7801 429.84 58.5501 431.11C58.1803 431.327 57.8614 431.622 57.615 431.973C57.3685 432.324 57.2003 432.724 57.1217 433.146C57.043 433.568 57.0557 434.001 57.159 434.418C57.2622 434.834 57.4536 435.224 57.7201 435.56C58.7201 437.04 60.9401 437.56 62.6601 437.62C64.5901 437.67 68.4501 436.03 68.7601 435.9C69.6907 438.112 70.7733 440.257 72.0001 442.32C72.7001 443.53 73.4401 444.73 74.2001 445.91C73.7801 445.42 73.3901 444.99 73.3301 444.91C71.6301 443.37 67.4501 441.38 65.2201 442.65C64.8503 442.867 64.5314 443.162 64.285 443.513C64.0385 443.864 63.8703 444.264 63.7917 444.686C63.713 445.108 63.7257 445.541 63.8289 445.958C63.9322 446.374 64.1236 446.764 64.3901 447.1C65.3901 448.58 67.6101 449.1 69.3301 449.16C71.0501 449.22 74.3301 447.88 75.2601 447.51C75.5601 447.96 75.8501 448.42 76.1401 448.87C77.5801 451.04 79.0101 453.2 80.3601 455.35C80.8301 456.11 81.2701 456.88 81.7201 457.65C81.3401 457.21 81.0101 456.85 80.9601 456.8C79.2601 455.25 75.0701 453.26 72.8401 454.54C72.468 454.756 72.1468 455.051 71.8983 455.402C71.6499 455.754 71.4801 456.155 71.4004 456.578C71.3207 457.001 71.333 457.436 71.4365 457.854C71.54 458.272 71.7322 458.663 72.0001 459C73.0001 460.47 75.2201 461 76.9401 461.05C78.6601 461.1 81.6901 459.91 82.7301 459.48Z" fill="#263238"/>
<path opacity="0.3" d="M59.59 424.83C61.51 425.41 65.98 424.78 65.98 424.77C65.98 424.76 64.67 421.96 64.57 421.77C63.34 419.83 59.83 416.77 57.34 417.45C56.9241 417.559 56.5365 417.757 56.2036 418.029C55.8707 418.302 55.6002 418.642 55.4105 419.028C55.2209 419.414 55.1164 419.837 55.1042 420.266C55.0921 420.696 55.1725 421.124 55.34 421.52C56 423.24 58 424.33 59.59 424.83Z" fill="#263238"/>
<path opacity="0.3" d="M105 420.42C105 420.42 105.46 417.35 105.47 417.15C105.47 414.86 104.25 410.4 101.82 409.56C101.413 409.426 100.982 409.381 100.555 409.427C100.129 409.474 99.718 409.611 99.3494 409.83C98.9807 410.049 98.6633 410.344 98.4185 410.696C98.1736 411.048 98.0071 411.448 97.93 411.87C97.52 413.64 98.54 415.62 99.64 416.94C100.93 418.49 105 420.42 105 420.42Z" fill="#263238"/>
<path opacity="0.3" d="M82.7301 459.48C83.1601 460.28 83.5901 461.08 83.9701 461.87C84.2201 462.41 84.4901 462.92 84.7101 463.49C84.9301 464.06 85.1601 464.59 85.3901 465.13C85.7801 466.19 86.1901 467.28 86.5401 468.32C86.8001 469.04 87.0301 469.74 87.2601 470.44C86.7901 469.67 85.8501 468.2 85.7601 468.09C84.3201 466.3 80.4801 463.7 78.0901 464.62C77.6955 464.785 77.3398 465.031 77.0464 465.342C76.7529 465.653 76.5282 466.022 76.3867 466.426C76.2452 466.829 76.1903 467.258 76.2253 467.685C76.2604 468.111 76.3847 468.525 76.5901 468.9C77.4101 470.52 79.4801 471.37 81.1601 471.68C83.0201 472.01 86.9301 471.04 87.4201 470.91C87.8001 472.07 88.1501 473.2 88.4201 474.27C89.0001 476.17 89.4801 477.92 89.8901 479.46H91.6001C91.1201 477.8 90.6001 475.91 89.8801 473.82C89.5001 472.64 89.0701 471.39 88.6101 470.11C89.752 469.493 90.8541 468.805 91.9101 468.05C93.3801 469.31 96.9101 470.57 97.3901 470.73C97.0601 471.9 96.7401 473.04 96.3901 474.11C95.8001 476.11 95.2101 477.9 94.6801 479.46H96.4001C96.8601 477.99 97.4001 476.35 97.8601 474.54C98.1901 473.35 98.5201 472.07 98.8601 470.75C99.3501 470.75 103.37 471.12 105.15 470.49C106.77 469.92 108.67 468.74 109.22 467.01C109.374 466.606 109.439 466.174 109.41 465.743C109.381 465.311 109.26 464.892 109.054 464.512C108.847 464.132 108.562 463.801 108.216 463.542C107.87 463.283 107.473 463.101 107.05 463.01C104.54 462.48 101.17 465.67 100.05 467.66C99.9801 467.78 99.4001 469.14 99.0501 470C99.1801 469.46 99.3201 468.94 99.4501 468.38C99.7101 467.29 99.9301 466.18 100.18 464.99C100.28 464.42 100.39 463.83 100.49 463.25C100.59 462.67 100.65 462.04 100.73 461.42C100.9 460 101 458.56 101.06 457.1C102.06 457.32 105.45 458.1 107.14 457.75C108.83 457.4 110.88 456.56 111.69 454.93C111.899 454.555 112.026 454.139 112.06 453.711C112.095 453.283 112.037 452.853 111.891 452.449C111.745 452.045 111.514 451.677 111.214 451.37C110.914 451.063 110.551 450.825 110.15 450.67C107.74 449.77 103.93 452.41 102.51 454.21C102.42 454.32 101.51 455.73 101.08 456.51C101.08 455.63 101.15 454.76 101.15 453.87C101.15 451.3 101.15 448.7 101.04 446.11V443.73C101.38 443.81 105.44 444.8 107.33 444.43C109.01 444.11 111.07 443.24 111.87 441.61C112.08 441.236 112.206 440.821 112.242 440.393C112.277 439.965 112.22 439.535 112.075 439.132C111.93 438.728 111.7 438.36 111.401 438.052C111.102 437.745 110.74 437.506 110.34 437.35C107.93 436.45 104.12 439.09 102.7 440.89C102.59 441.03 101.33 443.05 101.04 443.58C101.04 441.84 101.04 440.1 101.04 438.38C101.113 436.065 101.337 433.756 101.71 431.47C101.87 431.47 106.1 432.55 108.04 432.18C109.72 431.86 111.78 430.99 112.58 429.36C112.79 428.986 112.916 428.571 112.952 428.143C112.987 427.715 112.93 427.285 112.785 426.882C112.64 426.478 112.41 426.11 112.111 425.802C111.812 425.495 111.45 425.256 111.05 425.1C108.64 424.2 104.83 426.84 103.4 428.64C103.31 428.76 102.4 430.3 101.91 431.04L101.77 430.99C102.212 428.698 102.855 426.449 103.69 424.27C104.14 423.07 104.63 421.94 105.13 420.86C105.9 421.13 109.42 422.35 111.21 422.21C113 422.07 115.05 421.43 116.03 419.91C116.279 419.56 116.449 419.162 116.531 418.74C116.612 418.319 116.602 417.886 116.502 417.469C116.401 417.052 116.213 416.661 115.949 416.323C115.684 415.985 115.351 415.708 114.97 415.51C112.68 414.35 108.6 416.51 106.97 418.18C106.88 418.27 106.09 419.27 105.52 420.01C105.76 419.52 105.99 419.01 106.23 418.56C107.1 416.82 108.01 415.29 108.83 413.94C109.3 413.17 109.74 412.49 110.16 411.85C111.05 411.73 114.65 411.19 116.16 410.26C117.67 409.33 119.22 407.8 119.38 405.99C119.441 405.562 119.408 405.127 119.285 404.713C119.161 404.299 118.95 403.916 118.665 403.592C118.38 403.267 118.029 403.007 117.634 402.831C117.24 402.655 116.812 402.566 116.38 402.57C113.81 402.57 111.21 406.44 110.53 408.63C110.47 408.82 109.9 411.89 109.94 411.88H110C109.58 412.49 109.14 413.14 108.68 413.88C107.83 415.21 106.88 416.73 105.97 418.46C104.958 420.302 104.057 422.202 103.27 424.15C102.378 426.33 101.682 428.586 101.19 430.89C101.19 430.89 101.19 430.95 101.19 430.97C101.12 430.22 100.84 428.14 100.8 427.97C100.24 425.74 97.8001 421.77 95.2801 421.61C94.8518 421.587 94.4235 421.656 94.0242 421.813C93.6248 421.969 93.2637 422.21 92.9651 422.518C92.6666 422.826 92.4376 423.194 92.2935 423.598C92.1495 424.002 92.0938 424.433 92.1301 424.86C92.2001 426.68 93.7101 428.32 95.1301 429.3C96.7101 430.41 100.83 431.18 101.13 431.24C100.69 433.595 100.406 435.977 100.28 438.37C100.2 439.76 100.16 441.17 100.14 442.58C100.05 441.93 99.9701 441.36 99.9501 441.28C99.3901 439.05 96.9501 435.08 94.4301 434.92C94.0018 434.897 93.5735 434.966 93.1742 435.123C92.7748 435.279 92.4137 435.52 92.1151 435.828C91.8166 436.136 91.5876 436.504 91.4435 436.908C91.2995 437.312 91.2438 437.743 91.2801 438.17C91.3501 439.99 92.8601 441.63 94.2801 442.61C95.7001 443.59 99.2001 444.33 100.13 444.51C100.13 445.05 100.13 445.59 100.13 446.13C100.13 448.73 100.13 451.32 100.07 453.87C100.07 454.76 99.9901 455.65 99.9401 456.53C99.8601 455.95 99.7901 455.47 99.7701 455.4C99.2101 453.17 96.8201 449.2 94.2501 449.04C93.8226 449.018 93.3954 449.089 92.9973 449.246C92.5992 449.403 92.2393 449.644 91.9419 449.952C91.6444 450.26 91.4163 450.627 91.2729 451.031C91.1294 451.434 91.0739 451.863 91.1101 452.29C91.1801 454.11 92.6901 455.75 94.1101 456.73C95.5301 457.71 98.6901 458.38 99.7901 458.6C99.7101 459.5 99.6301 460.4 99.5101 461.27C99.4201 461.87 99.3701 462.44 99.2401 463.03C99.1101 463.62 99.0101 464.2 98.8901 464.78C98.6401 465.87 98.3801 467.01 98.1001 468.08C97.9101 468.82 97.7201 469.52 97.5201 470.23C97.5201 469.34 97.5901 467.6 97.5201 467.45C97.2593 465.447 96.4841 463.545 95.2701 461.93C95.2496 461.707 95.2094 461.486 95.1501 461.27C95.0529 460.852 94.8672 460.46 94.6055 460.12C94.3438 459.78 94.0121 459.5 93.633 459.299C93.2539 459.098 92.8361 458.981 92.4077 458.955C91.9794 458.929 91.5506 458.996 91.1501 459.15C88.7701 460.1 87.7201 464.61 87.8701 466.9C87.8701 467.04 88.1401 468.49 88.3201 469.4C88.1301 468.88 87.9601 468.4 87.7601 467.84C87.3701 466.78 86.9501 465.73 86.5101 464.61L85.8801 463C85.6601 462.45 85.3501 461.9 85.0801 461.34C84.4401 460.07 83.7201 458.81 82.9701 457.55C83.9001 457.21 87.1701 455.95 88.4001 454.75C89.6301 453.55 90.8601 451.68 90.6401 449.88C90.6071 449.453 90.4828 449.037 90.2757 448.662C90.0686 448.286 89.7835 447.96 89.4395 447.704C89.0955 447.448 88.7007 447.269 88.2816 447.179C87.8626 447.088 87.429 447.089 87.0101 447.18C84.5001 447.76 82.7801 452.06 82.5901 454.35C82.5901 454.49 82.5901 456.15 82.6601 457.06C82.2001 456.31 81.7501 455.55 81.2601 454.81C79.8601 452.66 78.3701 450.53 76.8901 448.4L75.5501 446.4C75.8801 446.28 79.8101 444.87 81.1901 443.52C82.5701 442.17 83.6501 440.46 83.4201 438.66C83.3742 438.239 83.2412 437.833 83.0296 437.466C82.818 437.099 82.5323 436.781 82.1909 436.531C81.8495 436.28 81.4597 436.104 81.0464 436.013C80.633 435.921 80.2052 435.917 79.7901 436C77.2901 436.58 75.5601 440.89 75.3701 443.17C75.3701 443.34 75.3701 445.73 75.4701 446.33C74.4701 444.89 73.4701 443.44 72.6301 441.98C71.4095 440.007 70.3204 437.956 69.3701 435.84C69.5301 435.78 73.6301 434.32 75.0501 432.95C76.2701 431.75 77.5001 429.88 77.2801 428.08C77.2471 427.653 77.1228 427.237 76.9157 426.862C76.7086 426.486 76.4235 426.16 76.0795 425.904C75.7355 425.648 75.3407 425.469 74.9216 425.379C74.5026 425.288 74.069 425.289 73.6501 425.38C71.1401 425.96 69.4201 430.26 69.2301 432.55C69.2301 432.7 69.2301 434.55 69.3101 435.38H69.1601C68.2624 433.227 67.5596 430.998 67.0601 428.72C66.7601 427.47 66.5501 426.26 66.3701 425.07C67.1701 424.88 70.7801 423.95 72.1901 422.85C73.6001 421.75 74.9701 420.08 74.9401 418.27C74.9553 417.841 74.8783 417.414 74.7143 417.017C74.5502 416.621 74.303 416.264 73.9892 415.971C73.6755 415.678 73.3025 415.456 72.8955 415.319C72.4885 415.183 72.057 415.135 71.6301 415.18C69.0801 415.48 66.8901 419.57 66.4501 421.82C66.4501 421.94 66.3101 423.21 66.2501 424.14C66.1801 423.6 66.0901 423.05 66.0301 422.54C65.8101 420.61 65.7201 418.83 65.6501 417.25C65.6501 416.35 65.6501 415.54 65.6501 414.78C66.3301 414.18 69.0401 411.78 69.7701 410.15C70.5001 408.52 70.9601 406.41 70.1001 404.81C69.9093 404.427 69.6402 404.089 69.3102 403.817C68.9802 403.545 68.5967 403.346 68.1846 403.232C67.7725 403.118 67.3411 403.091 66.9182 403.155C66.4954 403.218 66.0906 403.37 65.7301 403.6C63.6101 405.04 63.5501 409.67 64.2001 411.88C64.2001 412.07 65.4601 414.95 65.5001 414.88C65.5001 415.61 65.5001 416.4 65.5001 417.25C65.5001 418.84 65.5801 420.62 65.7601 422.57C65.936 424.666 66.2366 426.75 66.6601 428.81C67.1181 431.12 67.7876 433.383 68.6601 435.57V435.65C68.1801 435.07 66.8001 433.48 66.6601 433.37C64.9601 431.83 60.7801 429.84 58.5501 431.11C58.1803 431.327 57.8614 431.622 57.615 431.973C57.3685 432.324 57.2003 432.724 57.1217 433.146C57.043 433.568 57.0557 434.001 57.159 434.418C57.2622 434.834 57.4536 435.224 57.7201 435.56C58.7201 437.04 60.9401 437.56 62.6601 437.62C64.5901 437.67 68.4501 436.03 68.7601 435.9C69.6907 438.112 70.7733 440.257 72.0001 442.32C72.7001 443.53 73.4401 444.73 74.2001 445.91C73.7801 445.42 73.3901 444.99 73.3301 444.91C71.6301 443.37 67.4501 441.38 65.2201 442.65C64.8503 442.867 64.5314 443.162 64.285 443.513C64.0385 443.864 63.8703 444.264 63.7917 444.686C63.713 445.108 63.7257 445.541 63.8289 445.958C63.9322 446.374 64.1236 446.764 64.3901 447.1C65.3901 448.58 67.6101 449.1 69.3301 449.16C71.0501 449.22 74.3301 447.88 75.2601 447.51C75.5601 447.96 75.8501 448.42 76.1401 448.87C77.5801 451.04 79.0101 453.2 80.3601 455.35C80.8301 456.11 81.2701 456.88 81.7201 457.65C81.3401 457.21 81.0101 456.85 80.9601 456.8C79.2601 455.25 75.0701 453.26 72.8401 454.54C72.468 454.756 72.1468 455.051 71.8983 455.402C71.6499 455.754 71.4801 456.155 71.4004 456.578C71.3207 457.001 71.333 457.436 71.4365 457.854C71.54 458.272 71.7322 458.663 72.0001 459C73.0001 460.47 75.2201 461 76.9401 461.05C78.6601 461.1 81.6901 459.91 82.7301 459.48Z" fill="#263238"/>
<g opacity="0.2">
<path d="M330.68 191.58C330.89 191.68 332.93 176.58 332.95 175.58C333.17 164.39 327.03 142.64 315.18 138.58C306.65 135.64 298.18 141.4 296.18 149.83C294.18 158.45 299.18 168.12 304.51 174.55C310.79 182.13 330.67 191.57 330.68 191.58Z" fill="black"/>
<path d="M109.18 213C118.58 215.84 140.36 212.76 140.38 212.75C140.6 212.75 133.98 199.01 133.47 198.19C127.47 188.74 110.36 173.99 98.2198 177.12C89.4798 179.42 85.5998 188.9 88.5998 197C91.6598 205.32 101.18 210.62 109.18 213Z" fill="black"/>
<path d="M222 382C224.1 385.88 226.2 389.77 228.06 393.63C229.26 396.3 230.61 398.78 231.67 401.53L234.97 409.53C236.88 414.7 238.88 420.01 240.61 425.1C241.84 428.63 242.95 432.01 244.08 435.42C241.82 431.7 237.24 424.52 236.79 423.96C229.79 415.25 211.05 402.57 199.36 407.07C190.94 410.32 188.17 420.18 192.08 427.91C196.08 435.8 206.15 439.98 214.37 441.46C223.43 443.09 242.49 438.35 244.86 437.74C246.71 443.39 248.45 448.89 250.01 454.11C252.81 463.39 255.17 471.89 257.16 479.43H265.48C263.18 471.34 260.41 462.09 257.1 451.9C255.25 446.16 253.1 440.07 250.94 433.83C256.489 430.816 261.855 427.477 267.01 423.83C274.2 429.97 291.48 436.11 293.71 436.88C292.14 442.61 290.56 448.16 288.98 453.38C286.07 463.08 283.23 471.83 280.63 479.46H289.03C291.27 472.29 293.67 464.28 296.11 455.46C297.73 449.65 299.35 443.41 300.95 436.99C303.35 437.2 322.95 438.82 331.65 435.74C339.53 432.95 348.79 427.2 351.46 418.74C354.07 410.48 349.75 401.2 340.91 399.35C328.65 396.79 312.23 412.35 306.7 422.06C306.37 422.63 303.52 429.25 301.8 433.46C302.44 430.83 303.09 428.29 303.71 425.57C304.98 420.22 306.1 414.84 307.31 409.05L308.8 400.52C309.35 397.69 309.58 394.62 309.99 391.64C310.79 384.71 311.27 377.64 311.59 370.53C316.28 371.64 333 375.31 341.25 373.74C349.5 372.17 359.48 367.9 363.4 359.97C367.24 352.2 364.4 342.37 355.92 339.2C344.18 334.82 325.6 347.69 318.66 356.46C318.22 357.01 313.95 363.87 311.66 367.68C311.82 363.4 312.01 359.12 312.03 354.79C312.09 342.26 311.77 329.59 311.5 316.94C311.41 313.07 311.38 309.21 311.33 305.34C312.99 305.75 332.77 310.55 342.01 308.79C350.22 307.23 360.24 302.95 364.16 295.02C367.99 287.25 365.16 277.42 356.67 274.26C344.93 269.87 326.36 282.74 319.41 291.52C318.89 292.18 312.75 302.05 311.31 304.64C311.2 296.13 311.17 287.64 311.48 279.28C311.838 267.981 312.931 256.717 314.75 245.56C315.52 245.76 336.14 250.86 345.6 249.06C353.81 247.49 363.84 243.21 367.75 235.28C371.59 227.52 368.75 217.68 360.27 214.52C348.56 210.14 330 223 323 231.79C322.54 232.36 317.86 239.88 315.72 243.51L315.05 243.26C317.177 232.083 320.303 221.119 324.39 210.5C326.56 204.63 328.96 199.13 331.39 193.84C335.13 195.18 352.3 201.14 360.99 200.45C369.33 199.8 379.76 196.65 384.53 189.2C389.19 181.9 387.42 171.81 379.36 167.74C368.18 162.09 348.3 172.84 340.44 180.8C340.01 181.23 336.15 186.12 333.38 189.71C334.53 187.34 335.67 184.87 336.81 182.62C341.09 174.16 345.52 166.68 349.5 160.09C351.8 156.36 353.94 153.03 355.99 149.93C360.35 149.33 377.89 146.71 385.16 142.18C392.25 137.76 400.06 130.18 400.86 121.34C401.63 112.72 395.42 104.58 386.39 104.68C373.86 104.82 361.17 123.52 357.86 134.21C357.57 135.13 354.75 150.09 354.98 150.07H355.24C353.24 153.01 351.08 156.18 348.82 159.69C344.68 166.21 340.07 173.62 335.6 182.02C330.677 191.015 326.287 200.291 322.45 209.8C318.095 220.427 314.695 231.42 312.29 242.65C312.29 242.78 312.29 242.92 312.23 243.06C311.86 239.4 310.49 229.23 310.29 228.46C307.55 217.61 295.88 198.25 283.38 197.46C274.38 196.88 267.72 204.68 268.04 213.33C268.36 222.17 275.75 230.18 282.6 234.98C290.32 240.38 310.42 244.12 312.02 244.41C309.856 255.898 308.463 267.517 307.85 279.19C307.46 285.98 307.27 292.84 307.17 299.72C306.75 296.58 306.35 293.72 306.25 293.38C303.51 282.53 291.84 263.17 279.33 262.38C270.33 261.79 263.68 269.59 264 278.25C264.32 287.09 271.71 295.09 278.56 299.89C285.41 304.69 302.56 308.28 307.1 309.15C307.1 311.79 307.05 314.43 307.05 317.07C307.05 329.73 307.05 342.37 306.76 354.77C306.64 359.14 306.37 363.44 306.11 367.77C305.73 364.98 305.39 362.63 305.3 362.27C302.56 351.42 290.89 332.07 278.39 331.27C269.39 330.69 262.73 338.48 263.05 347.14C263.37 355.98 270.77 363.99 277.61 368.78C284.24 373.42 299.97 376.78 305.34 377.89C304.95 382.28 304.56 386.69 303.97 390.89C303.51 393.78 303.26 396.59 302.63 399.47C302 402.35 301.52 405.16 300.97 407.96C299.71 413.32 298.44 418.86 297.08 424.06C296.16 427.68 295.22 431.12 294.29 434.58C294.45 430.23 294.6 421.72 294.53 421C293.82 413.6 289.77 401.91 283.53 394.1C283.434 393.004 283.236 391.92 282.94 390.86C280.57 382.53 271.84 377.17 263.45 380.51C251.8 385.14 246.69 407.16 247.45 418.32C247.45 418.98 248.77 426.07 249.65 430.54C248.73 427.99 247.87 425.54 246.9 422.9C245 417.74 242.96 412.63 240.79 407.14C239.64 404.52 238.49 401.88 237.32 399.2C236.15 396.52 234.71 393.85 233.41 391.14C230.26 384.92 226.77 378.77 223.11 372.65C227.63 370.98 243.6 364.82 249.61 358.96C255.62 353.1 261.61 344.03 260.49 335.25C259.41 326.66 251.59 320.04 242.79 322.07C230.58 324.88 222.19 345.87 221.24 357.02C221.18 357.71 221.39 365.79 221.6 370.22C219.37 366.56 217.16 362.9 214.79 359.27C207.94 348.79 200.67 338.4 193.47 328C191.27 324.81 189.11 321.61 186.93 318.42C188.54 317.84 207.69 310.93 214.42 304.37C220.42 298.53 226.42 289.44 225.3 280.66C224.22 272.07 216.4 265.45 207.6 267.48C195.39 270.29 187 291.27 186.05 302.42C185.97 303.26 186.3 314.89 186.53 317.84C181.74 310.84 177.04 303.74 172.68 296.6C166.748 286.976 161.443 276.978 156.8 266.67C157.56 266.4 177.57 259.28 184.47 252.56C190.47 246.73 196.47 237.63 195.34 228.85C194.26 220.26 186.44 213.64 177.65 215.67C165.43 218.48 157.04 239.47 156.09 250.61C156.03 251.35 156.27 260.21 156.48 264.41L155.79 264.57C151.422 254.042 148.011 243.141 145.6 232C144.17 225.91 143.14 220 142.27 214.23C146.14 213.28 163.75 208.77 170.62 203.41C177.21 198.26 184.17 189.88 184.04 181.04C183.9 172.38 176.86 164.94 167.89 165.99C155.45 167.44 144.8 187.38 142.63 198.36C142.51 198.95 141.98 205.16 141.63 209.68C141.28 207.07 140.87 204.38 140.63 201.87C139.53 192.46 139.1 183.77 138.78 176.08C138.64 171.7 138.59 167.74 138.59 164.08C141.9 161.18 155.08 149.31 158.65 141.52C162.12 133.92 164.44 123.27 160.24 115.52C156.13 107.9 146.46 104.52 138.98 109.6C128.61 116.6 128.35 139.23 131.48 149.98C131.75 150.9 137.65 164.98 137.83 164.79L138.03 164.61C137.96 168.18 137.92 172.01 137.97 176.19C138.12 183.9 138.36 192.63 139.26 202.1C140.121 212.316 141.577 222.473 143.62 232.52C145.848 243.787 149.081 254.831 153.28 265.52C153.33 265.65 153.4 265.77 153.45 265.9C151.12 263.06 144.36 255.33 143.78 254.79C135.51 247.25 115.09 237.55 104.22 243.79C96.3798 248.28 95.1398 258.44 100.22 265.49C105.3 272.54 115.95 275.29 124.31 275.49C133.73 275.74 152.55 267.77 154.04 267.13C158.577 277.902 163.829 288.358 169.76 298.43C173.18 304.32 176.76 310.15 180.51 315.94C178.43 313.55 176.51 311.42 176.25 311.16C167.98 303.61 147.56 293.91 136.69 300.16C128.85 304.64 127.61 314.81 132.69 321.85C137.84 329.05 148.42 331.65 156.78 331.85C165.14 332.05 181.44 325.6 185.7 323.85C187.14 326.06 188.56 328.28 190.02 330.48C197.02 341.05 204.02 351.57 210.57 362.09C212.89 365.8 215.03 369.54 217.19 373.27C215.33 371.14 213.75 369.37 213.48 369.13C205.21 361.59 184.8 351.88 173.93 358.13C166.09 362.61 164.85 372.78 169.93 379.82C175.08 387.02 185.66 389.62 194.01 389.82C202 390 217 384.1 222 382Z" fill="black"/>
<path opacity="0.3" d="M109.18 213C118.58 215.84 140.36 212.76 140.38 212.75C140.6 212.75 133.98 199.01 133.47 198.19C127.47 188.74 110.36 173.99 98.2198 177.12C89.4798 179.42 85.5998 188.9 88.5998 197C91.6598 205.32 101.18 210.62 109.18 213Z" fill="black"/>
<path opacity="0.3" d="M330.68 191.58C330.89 191.68 332.93 176.58 332.95 175.58C333.17 164.39 327.03 142.64 315.18 138.58C306.65 135.64 298.18 141.4 296.18 149.83C294.18 158.45 299.18 168.12 304.51 174.55C310.79 182.13 330.67 191.57 330.68 191.58Z" fill="black"/>
<path opacity="0.3" d="M222 382C224.1 385.88 226.2 389.77 228.06 393.63C229.26 396.3 230.61 398.78 231.67 401.53L234.97 409.53C236.88 414.7 238.88 420.01 240.61 425.1C241.84 428.63 242.95 432.01 244.08 435.42C241.82 431.7 237.24 424.52 236.79 423.96C229.79 415.25 211.05 402.57 199.36 407.07C190.94 410.32 188.17 420.18 192.08 427.91C196.08 435.8 206.15 439.98 214.37 441.46C223.43 443.09 242.49 438.35 244.86 437.74C246.71 443.39 248.45 448.89 250.01 454.11C252.81 463.39 255.17 471.89 257.16 479.43H265.48C263.18 471.34 260.41 462.09 257.1 451.9C255.25 446.16 253.1 440.07 250.94 433.83C256.489 430.816 261.855 427.477 267.01 423.83C274.2 429.97 291.48 436.11 293.71 436.88C292.14 442.61 290.56 448.16 288.98 453.38C286.07 463.08 283.23 471.83 280.63 479.46H289.03C291.27 472.29 293.67 464.28 296.11 455.46C297.73 449.65 299.35 443.41 300.95 436.99C303.35 437.2 322.95 438.82 331.65 435.74C339.53 432.95 348.79 427.2 351.46 418.74C354.07 410.48 349.75 401.2 340.91 399.35C328.65 396.79 312.23 412.35 306.7 422.06C306.37 422.63 303.52 429.25 301.8 433.46C302.44 430.83 303.09 428.29 303.71 425.57C304.98 420.22 306.1 414.84 307.31 409.05L308.8 400.52C309.35 397.69 309.58 394.62 309.99 391.64C310.79 384.71 311.27 377.64 311.59 370.53C316.28 371.64 333 375.31 341.25 373.74C349.5 372.17 359.48 367.9 363.4 359.97C367.24 352.2 364.4 342.37 355.92 339.2C344.18 334.82 325.6 347.69 318.66 356.46C318.22 357.01 313.95 363.87 311.66 367.68C311.82 363.4 312.01 359.12 312.03 354.79C312.09 342.26 311.77 329.59 311.5 316.94C311.41 313.07 311.38 309.21 311.33 305.34C312.99 305.75 332.77 310.55 342.01 308.79C350.22 307.23 360.24 302.95 364.16 295.02C367.99 287.25 365.16 277.42 356.67 274.26C344.93 269.87 326.36 282.74 319.41 291.52C318.89 292.18 312.75 302.05 311.31 304.64C311.2 296.13 311.17 287.64 311.48 279.28C311.838 267.981 312.931 256.717 314.75 245.56C315.52 245.76 336.14 250.86 345.6 249.06C353.81 247.49 363.84 243.21 367.75 235.28C371.59 227.52 368.75 217.68 360.27 214.52C348.56 210.14 330 223 323 231.79C322.54 232.36 317.86 239.88 315.72 243.51L315.05 243.26C317.177 232.083 320.303 221.119 324.39 210.5C326.56 204.63 328.96 199.13 331.39 193.84C335.13 195.18 352.3 201.14 360.99 200.45C369.33 199.8 379.76 196.65 384.53 189.2C389.19 181.9 387.42 171.81 379.36 167.74C368.18 162.09 348.3 172.84 340.44 180.8C340.01 181.23 336.15 186.12 333.38 189.71C334.53 187.34 335.67 184.87 336.81 182.62C341.09 174.16 345.52 166.68 349.5 160.09C351.8 156.36 353.94 153.03 355.99 149.93C360.35 149.33 377.89 146.71 385.16 142.18C392.25 137.76 400.06 130.18 400.86 121.34C401.63 112.72 395.42 104.58 386.39 104.68C373.86 104.82 361.17 123.52 357.86 134.21C357.57 135.13 354.75 150.09 354.98 150.07H355.24C353.24 153.01 351.08 156.18 348.82 159.69C344.68 166.21 340.07 173.62 335.6 182.02C330.677 191.015 326.287 200.291 322.45 209.8C318.095 220.427 314.695 231.42 312.29 242.65C312.29 242.78 312.29 242.92 312.23 243.06C311.86 239.4 310.49 229.23 310.29 228.46C307.55 217.61 295.88 198.25 283.38 197.46C274.38 196.88 267.72 204.68 268.04 213.33C268.36 222.17 275.75 230.18 282.6 234.98C290.32 240.38 310.42 244.12 312.02 244.41C309.856 255.898 308.463 267.517 307.85 279.19C307.46 285.98 307.27 292.84 307.17 299.72C306.75 296.58 306.35 293.72 306.25 293.38C303.51 282.53 291.84 263.17 279.33 262.38C270.33 261.79 263.68 269.59 264 278.25C264.32 287.09 271.71 295.09 278.56 299.89C285.41 304.69 302.56 308.28 307.1 309.15C307.1 311.79 307.05 314.43 307.05 317.07C307.05 329.73 307.05 342.37 306.76 354.77C306.64 359.14 306.37 363.44 306.11 367.77C305.73 364.98 305.39 362.63 305.3 362.27C302.56 351.42 290.89 332.07 278.39 331.27C269.39 330.69 262.73 338.48 263.05 347.14C263.37 355.98 270.77 363.99 277.61 368.78C284.24 373.42 299.97 376.78 305.34 377.89C304.95 382.28 304.56 386.69 303.97 390.89C303.51 393.78 303.26 396.59 302.63 399.47C302 402.35 301.52 405.16 300.97 407.96C299.71 413.32 298.44 418.86 297.08 424.06C296.16 427.68 295.22 431.12 294.29 434.58C294.45 430.23 294.6 421.72 294.53 421C293.82 413.6 289.77 401.91 283.53 394.1C283.434 393.004 283.236 391.92 282.94 390.86C280.57 382.53 271.84 377.17 263.45 380.51C251.8 385.14 246.69 407.16 247.45 418.32C247.45 418.98 248.77 426.07 249.65 430.54C248.73 427.99 247.87 425.54 246.9 422.9C245 417.74 242.96 412.63 240.79 407.14C239.64 404.52 238.49 401.88 237.32 399.2C236.15 396.52 234.71 393.85 233.41 391.14C230.26 384.92 226.77 378.77 223.11 372.65C227.63 370.98 243.6 364.82 249.61 358.96C255.62 353.1 261.61 344.03 260.49 335.25C259.41 326.66 251.59 320.04 242.79 322.07C230.58 324.88 222.19 345.87 221.24 357.02C221.18 357.71 221.39 365.79 221.6 370.22C219.37 366.56 217.16 362.9 214.79 359.27C207.94 348.79 200.67 338.4 193.47 328C191.27 324.81 189.11 321.61 186.93 318.42C188.54 317.84 207.69 310.93 214.42 304.37C220.42 298.53 226.42 289.44 225.3 280.66C224.22 272.07 216.4 265.45 207.6 267.48C195.39 270.29 187 291.27 186.05 302.42C185.97 303.26 186.3 314.89 186.53 317.84C181.74 310.84 177.04 303.74 172.68 296.6C166.748 286.976 161.443 276.978 156.8 266.67C157.56 266.4 177.57 259.28 184.47 252.56C190.47 246.73 196.47 237.63 195.34 228.85C194.26 220.26 186.44 213.64 177.65 215.67C165.43 218.48 157.04 239.47 156.09 250.61C156.03 251.35 156.27 260.21 156.48 264.41L155.79 264.57C151.422 254.042 148.011 243.141 145.6 232C144.17 225.91 143.14 220 142.27 214.23C146.14 213.28 163.75 208.77 170.62 203.41C177.21 198.26 184.17 189.88 184.04 181.04C183.9 172.38 176.86 164.94 167.89 165.99C155.45 167.44 144.8 187.38 142.63 198.36C142.51 198.95 141.98 205.16 141.63 209.68C141.28 207.07 140.87 204.38 140.63 201.87C139.53 192.46 139.1 183.77 138.78 176.08C138.64 171.7 138.59 167.74 138.59 164.08C141.9 161.18 155.08 149.31 158.65 141.52C162.12 133.92 164.44 123.27 160.24 115.52C156.13 107.9 146.46 104.52 138.98 109.6C128.61 116.6 128.35 139.23 131.48 149.98C131.75 150.9 137.65 164.98 137.83 164.79L138.03 164.61C137.96 168.18 137.92 172.01 137.97 176.19C138.12 183.9 138.36 192.63 139.26 202.1C140.121 212.316 141.577 222.473 143.62 232.52C145.848 243.787 149.081 254.831 153.28 265.52C153.33 265.65 153.4 265.77 153.45 265.9C151.12 263.06 144.36 255.33 143.78 254.79C135.51 247.25 115.09 237.55 104.22 243.79C96.3798 248.28 95.1398 258.44 100.22 265.49C105.3 272.54 115.95 275.29 124.31 275.49C133.73 275.74 152.55 267.77 154.04 267.13C158.577 277.902 163.829 288.358 169.76 298.43C173.18 304.32 176.76 310.15 180.51 315.94C178.43 313.55 176.51 311.42 176.25 311.16C167.98 303.61 147.56 293.91 136.69 300.16C128.85 304.64 127.61 314.81 132.69 321.85C137.84 329.05 148.42 331.65 156.78 331.85C165.14 332.05 181.44 325.6 185.7 323.85C187.14 326.06 188.56 328.28 190.02 330.48C197.02 341.05 204.02 351.57 210.57 362.09C212.89 365.8 215.03 369.54 217.19 373.27C215.33 371.14 213.75 369.37 213.48 369.13C205.21 361.59 184.8 351.88 173.93 358.13C166.09 362.61 164.85 372.78 169.93 379.82C175.08 387.02 185.66 389.62 194.01 389.82C202 390 217 384.1 222 382Z" fill="black"/>
</g>
<path d="M119.81 50.32C119.81 50.32 114.89 37.66 97.3198 36.26C79.7498 34.86 77.6398 53.83 74.1298 56.64C70.6198 59.45 63.5798 51.72 56.5498 54.53C52.2843 56.305 48.7941 59.5468 46.7098 63.67C46.7098 63.67 40.3898 60.86 36.1698 61.56C31.9498 62.26 27.0298 68.56 27.0298 68.56H145.82C145.82 68.56 145.82 56.56 137.39 52.39C128.96 48.22 125.44 57.32 123.33 56.61C121.22 55.9 119.81 50.32 119.81 50.32Z" stroke="#263238" stroke-miterlimit="10"/>
<path d="M460.51 143.58C460.51 143.58 456.33 132.82 441.38 131.58C426.43 130.34 424.64 146.57 421.65 149C418.66 151.43 412.65 144.81 406.7 147.2C403.07 148.711 400.102 151.471 398.33 154.98C398.33 154.98 392.95 152.59 389.33 153.18C385.71 153.77 381.56 159.18 381.56 159.18H482.56C482.56 159.18 482.56 149.02 475.39 145.43C468.22 141.84 465.22 149.62 463.39 149.02C461.56 148.42 460.51 143.58 460.51 143.58Z" stroke="#263238" stroke-miterlimit="10"/>
<path d="M127.67 341.08C127.67 341.08 121.78 325.92 100.72 324.24C79.6598 322.56 77.1398 345.29 72.9298 348.66C68.7198 352.03 60.2998 342.77 51.8798 346.14C46.7681 348.26 42.5852 352.141 40.0898 357.08C40.0898 357.08 32.5098 353.72 27.4498 354.56C22.3898 355.4 16.5098 363 16.5098 363H158.83C158.83 363 158.83 348.68 148.73 343.63C138.63 338.58 134.41 349.52 131.89 348.68C129.37 347.84 127.67 341.08 127.67 341.08Z" stroke="#263238" stroke-miterlimit="10"/>
<path d="M107 160.84L78.6499 139.61C82.5152 132.071 83.4162 123.357 81.1753 115.186C78.9345 107.015 73.7144 99.9798 66.5438 95.4669C59.3732 90.954 50.7722 89.2906 42.436 90.8046C34.0999 92.3187 26.6331 96.9003 21.5074 103.646C16.3817 110.393 13.9689 118.814 14.7444 127.251C15.5199 135.688 19.4275 143.529 25.6971 149.227C31.9667 154.926 40.1436 158.07 48.6161 158.039C57.0886 158.008 65.2422 154.805 71.4699 149.06L99.8299 170.33C100.45 170.837 101.166 171.213 101.934 171.436C102.703 171.659 103.509 171.725 104.304 171.628C105.099 171.532 105.866 171.276 106.559 170.876C107.253 170.476 107.858 169.939 108.339 169.299C108.82 168.659 109.166 167.929 109.357 167.151C109.549 166.374 109.581 165.566 109.452 164.776C109.324 163.986 109.036 163.23 108.608 162.553C108.18 161.877 107.619 161.294 106.96 160.84H107ZM48.6299 146.17C44.3016 146.172 40.07 144.89 36.4703 142.487C32.8706 140.083 30.0646 136.666 28.4074 132.668C26.7501 128.669 26.3159 124.269 27.1599 120.024C28.0038 115.779 30.0879 111.879 33.1484 108.819C36.209 105.758 40.1086 103.674 44.3538 102.83C48.599 101.986 52.9992 102.42 56.9977 104.077C60.9961 105.735 64.4132 108.541 66.8166 112.14C69.2201 115.74 70.5019 119.972 70.4999 124.3C70.492 130.098 68.1853 135.656 64.0856 139.756C59.9859 143.855 54.4278 146.162 48.6299 146.17Z" stroke="#263238" stroke-miterlimit="10"/>
<path d="M246.92 194.25C192.77 194.25 146.82 224.92 130.56 267.46C130.414 267.85 130.398 268.276 130.513 268.676C130.629 269.075 130.869 269.427 131.2 269.68L176.73 304.68C177.068 304.934 177.477 305.074 177.9 305.08H185.2C185.459 305.079 185.714 305.026 185.952 304.924C186.19 304.822 186.404 304.673 186.583 304.487C186.763 304.3 186.902 304.079 186.994 303.838C187.087 303.596 187.129 303.338 187.12 303.08C187.12 302.54 187.12 302 187.12 301.46C187.12 272.58 213.9 249.16 246.95 249.16C280 249.16 306.78 272.58 306.78 301.46C306.78 330.34 280 353.74 246.92 353.74C241.84 353.738 236.775 353.171 231.82 352.05C231.365 351.942 230.898 351.888 230.43 351.89C229.392 351.893 228.371 352.147 227.453 352.631C226.535 353.114 225.748 353.813 225.158 354.667C224.569 355.52 224.195 356.504 224.068 357.534C223.941 358.564 224.065 359.609 224.43 360.58L231.08 378.2V418.58H304.17V401.88C304.162 400.243 304.607 398.636 305.453 397.235C306.3 395.834 307.517 394.694 308.97 393.94C345.24 375.31 369.59 340.87 369.59 301.45C369.57 242.24 314.66 194.25 246.92 194.25Z" fill="#263238" stroke="#263238" stroke-miterlimit="10"/>
<path d="M304.15 426.49H231.06V479.47H304.15V426.49Z" fill="#263238" stroke="#263238" stroke-miterlimit="10"/>
<path d="M359.57 301.45C359.57 242.24 304.66 194.25 236.92 194.25C182.82 194.25 136.92 224.85 120.61 267.33C120.465 267.748 120.463 268.203 120.604 268.623C120.745 269.043 121.022 269.404 121.39 269.65L174.13 303.11C174.422 303.305 174.762 303.416 175.113 303.432C175.464 303.448 175.813 303.367 176.122 303.2C176.43 303.032 176.687 302.783 176.865 302.48C177.043 302.177 177.134 301.831 177.13 301.48C177.13 272.6 203.92 249.18 236.96 249.18C270 249.18 296.79 272.6 296.79 301.48C296.79 330.36 270 353.74 236.92 353.74C234.075 353.741 231.233 353.564 228.41 353.21C227.504 353.089 226.582 353.163 225.706 353.427C224.83 353.691 224.021 354.139 223.333 354.742C222.645 355.344 222.093 356.086 221.715 356.919C221.337 357.751 221.141 358.655 221.14 359.57V378.2H221.06V418.58H294.15V401.88C294.145 400.244 294.59 398.637 295.437 397.237C296.283 395.836 297.499 394.696 298.95 393.94C335.22 375.31 359.57 340.87 359.57 301.45Z" fill="#A713F6" stroke="#263238" stroke-miterlimit="10"/>
<path d="M294.15 426.49H221.06V479.47H294.15V426.49Z" fill="#A713F6" stroke="#263238" stroke-miterlimit="10"/>
<path d="M230.5 90.8C230.5 90.8 223.28 94 220 95.49C218.141 96.3793 216.207 97.1021 214.22 97.65L219.73 100.54L235.25 98.1L230.5 90.8Z" fill="white" stroke="#263238" stroke-miterlimit="10"/>
<path d="M207.49 94.13C206.489 93.1708 205.663 92.0438 205.05 90.8C204.33 89.08 202.88 89.89 202.88 91.16C202.928 92.3944 203.338 93.5874 204.06 94.59C204.42 94.77 208.21 95.4 208.21 95.4L207.49 94.13Z" stroke="#263238" stroke-miterlimit="10"/>
<path d="M233.38 101.79L234.91 110.45C234.91 110.45 231.91 127.64 231.33 137.53C230.75 147.42 230.33 153.86 230.9 156.44C231.47 159.02 238.9 184.09 238.9 184.09C238.9 184.09 237.61 185.67 237.61 186.09C237.61 186.51 237.47 188.09 237.47 188.09C236.342 189.216 235.143 190.268 233.88 191.24C232.31 192.39 229.01 193.39 229.59 194.54C230.17 195.69 234.03 194.54 238.33 194.54C242.63 194.54 245.63 195.11 247.21 193.97C248.79 192.83 247.35 188.52 247.35 188.52C247.35 188.52 247.5 185.52 247.64 184.65C247.78 183.78 245.78 179.35 245.92 178.06C246.06 176.77 242.5 151 242.5 151L249.66 124.5C249.66 124.5 261.41 154.3 262.85 155.73C264.29 157.16 283.62 181.81 283.62 181.81C283.62 181.81 282.33 183.24 282.76 183.96C283.11 184.507 283.494 185.031 283.91 185.53C283.91 185.53 282.47 188.53 281.61 189.83C280.75 191.13 278.32 191.83 278.75 192.7C279.18 193.57 283.62 193.7 284.75 193.41C285.88 193.12 290.48 188.11 291.75 187.11C293.02 186.11 295.47 184.24 295.47 182.95C295.47 181.66 293.04 180.09 292.89 179.66C292.74 179.23 292.46 177.37 291.6 176.79C290.767 176.266 289.906 175.788 289.02 175.36C288.45 175.07 274.12 150.14 274.12 150.14C274.12 150.14 267.68 111.75 265.96 107.31C264.24 102.87 254.47 90.1001 254.47 90.1001L233.38 101.79Z" fill="#263238" stroke="#263238" stroke-miterlimit="10"/>
<path d="M217.78 78C217.78 78 219.67 86.67 222.06 88.94C224.45 91.21 229.23 91.83 229.23 91.83L233.38 101.77C233.38 101.77 248.47 97.11 254.51 90.07C254.51 90.07 247.51 78.88 242.31 71.71C237.11 64.54 239.29 63.3 232 59C224.71 54.7 218.79 60.64 218.79 60.64C218.79 60.64 213.26 60.91 217.78 78Z" fill="#A713F6" stroke="#263238" stroke-miterlimit="10"/>
<path d="M208.87 36.2699C208.87 36.2699 207.4 33.2699 197.87 34.7899C194.734 35.1611 191.808 36.5604 189.55 38.7692C187.293 40.978 185.83 43.8722 185.39 46.9999C185.01 49.9999 185.39 49.8599 184.47 50.6099C183.55 51.3599 179.47 50.8699 180.19 55.2699C180.91 59.6699 186.11 57.1499 186.86 58.6599C187.197 59.4418 187.755 60.1082 188.466 60.5772C189.177 61.0462 190.009 61.2974 190.86 61.2999C192.99 61.4299 195.01 58.9099 195.26 57.9099C195.51 56.9099 197.65 56.0199 201.42 58.2899C205.19 60.5599 210.22 64.5699 215.51 60.1699C220.8 55.7699 213.9 40.1599 208.87 36.2699Z" fill="#263238" stroke="#263238" stroke-miterlimit="10"/>
<path d="M189.11 55C189.524 56.3768 190.056 57.7152 190.7 59C191.49 60.36 194.43 61.61 194.55 63.64C194.67 65.67 193.98 67.04 194.55 67.38C195.12 67.72 197.83 66.93 197.83 66.93C197.83 66.93 203.83 70.93 205.3 70.32C206.77 69.71 209.6 65.79 209.6 65.79L216 70.34L217.78 78L220.05 74.35C220.05 74.35 215.77 69.19 217.28 64.92L218.79 60.64C218.79 60.64 209.15 59.31 207.9 57.73C206.65 56.15 204.39 52.18 202.36 51.61C200.33 51.04 199.53 53.88 199.75 54.56C199.97 55.24 196.36 55.12 194.09 54.22L191.83 53.31C191.26 53.11 189.11 54 189.11 55Z" fill="white" stroke="#263238" stroke-miterlimit="10"/>
<path d="M193.41 59.6699C193.41 59.6699 193.3 57.6699 195 57.4099" stroke="#263238" stroke-miterlimit="10"/>
<path d="M196.52 60.3599C197.08 60.8199 197.3 61.4599 197.02 61.7999C196.74 62.1399 196.02 62.0399 195.52 61.5899C195.02 61.1399 194.73 60.4799 195.01 60.1499C195.29 59.8199 196 59.8999 196.52 60.3599Z" fill="#263238"/>
<path d="M200.77 67C200.77 67 201.45 66.55 200.89 64.74" stroke="#263238" stroke-miterlimit="10"/>
<path d="M205.53 54.3501C205.53 54.3501 207.11 56.0501 206.53 56.9501C206.245 57.4446 205.856 57.8711 205.39 58.2001C205.39 58.2001 206.87 59.6701 206.98 60.5801" fill="white"/>
<path d="M205.53 54.3501C205.53 54.3501 207.11 56.0501 206.53 56.9501C206.245 57.4446 205.856 57.8711 205.39 58.2001C205.39 58.2001 206.87 59.6701 206.98 60.5801" stroke="#263238" stroke-miterlimit="10"/>
<path d="M200.75 49.86C200.75 49.86 206.33 53.5 209.28 58.05C212.23 62.6 220.63 62.36 223.6 59.86C226.57 57.36 227.12 54.94 229.41 55.51C231.7 56.08 237.2 57.96 240.78 55.33C244.36 52.7 241.68 47.47 245.32 48.42C247.268 48.9534 249.336 48.8534 251.223 48.1343C253.111 47.4152 254.721 46.1144 255.82 44.42C258.28 40.6 260.17 34.08 253.28 25.56C248 19 240.09 20.72 237.72 21.05C235.35 21.38 236.13 18.78 228.39 18.78C220.39 18.78 216.62 25.59 216.1 27.49C215.58 29.39 217.74 30.68 211.55 28.56C205.36 26.44 202.34 28.79 202.45 31.97C202.56 35.15 195.57 36.24 194.26 36.75" fill="#263238"/>
<path d="M200.75 49.86C200.75 49.86 206.33 53.5 209.28 58.05C212.23 62.6 220.63 62.36 223.6 59.86C226.57 57.36 227.12 54.94 229.41 55.51C231.7 56.08 237.2 57.96 240.78 55.33C244.36 52.7 241.68 47.47 245.32 48.42C247.268 48.9534 249.336 48.8534 251.223 48.1343C253.111 47.4152 254.721 46.1144 255.82 44.42C258.28 40.6 260.17 34.08 253.28 25.56C248 19 240.09 20.72 237.72 21.05C235.35 21.38 236.13 18.78 228.39 18.78C220.39 18.78 216.62 25.59 216.1 27.49C215.58 29.39 217.74 30.68 211.55 28.56C205.36 26.44 202.34 28.79 202.45 31.97C202.56 35.15 195.57 36.24 194.26 36.75" stroke="#263238" stroke-miterlimit="10"/>
<path d="M272.15 115.39C271.857 115.391 271.565 115.358 271.28 115.29L193.59 95.2401C193.266 95.1606 192.96 95.0181 192.691 94.8205C192.421 94.623 192.194 94.3744 192.021 94.0888C191.847 93.8033 191.732 93.4864 191.681 93.1563C191.631 92.8263 191.645 92.4894 191.725 92.1651C191.804 91.8407 191.947 91.5352 192.144 91.2659C192.342 90.9966 192.591 90.7689 192.876 90.5957C193.162 90.4225 193.479 90.3073 193.809 90.2566C194.139 90.2058 194.476 90.2206 194.8 90.3001L273 108.22C273.859 108.436 274.609 108.958 275.111 109.687C275.613 110.417 275.832 111.304 275.726 112.184C275.621 113.063 275.198 113.874 274.538 114.464C273.878 115.054 273.025 115.383 272.14 115.39H272.15Z" fill="#8F8F8F" stroke="#263238" stroke-miterlimit="10"/>
<path d="M239.79 101.91L237.4 103.67C236.859 104.603 236.186 105.452 235.4 106.19C234.52 106.82 234.02 107.19 234.9 107.57C235.78 107.95 237.9 107.07 237.9 107.07C237.9 107.07 237.14 110.34 237.77 110.59C238.4 110.84 239.77 110.97 240.16 110.47C240.427 110.14 240.77 109.879 241.16 109.71C241.16 109.71 241.53 110.21 243.8 109.59C246.07 108.97 246.19 105.06 246.44 103.3C246.69 101.54 256.75 79.4001 257.38 76.5101C258.01 73.6201 257.38 71.8501 256.5 71.3501C255.62 70.8501 230.5 63.0501 227.5 62.8001C224.5 62.5501 221.21 66.8001 222.97 70.9701C224.73 75.1401 231.77 76.5101 233.66 76.7601C235.55 77.0101 246.66 78.3901 246.66 78.3901C246.66 78.3901 244.4 89.8401 243.9 93.9901C243.632 97.07 242.154 99.918 239.79 101.91Z" fill="white" stroke="#263238" stroke-miterlimit="10"/>
<path d="M203.61 96C203.409 97.2227 203.318 98.4611 203.34 99.7C203.52 100.15 204.96 100.96 205.34 99.61C205.72 98.26 205.79 96 205.16 95.61C204.53 95.22 204.15 95.13 203.61 96Z" fill="white" stroke="#263238" stroke-miterlimit="10"/>
<path d="M206 97.41C206.052 98.6483 206.213 99.8796 206.48 101.09C206.75 101.49 208.32 102 208.4 100.6C208.48 99.2 208.12 96.97 207.4 96.75C206.68 96.53 206.31 96.42 206 97.41Z" fill="white" stroke="#263238" stroke-miterlimit="10"/>
<path d="M208.3 97.7701C208.358 99.008 208.518 100.239 208.78 101.45C209.05 101.85 210.63 102.36 210.71 100.96C210.79 99.5601 210.42 97.3301 209.71 97.1101C209 96.8901 208.65 96.7801 208.3 97.7701Z" fill="white" stroke="#263238" stroke-miterlimit="10"/>
<path d="M210.88 98.26C210.925 99.3133 211.062 100.361 211.29 101.39C211.52 101.73 212.86 102.16 212.93 100.97C213 99.78 212.68 97.89 212.1 97.69C211.52 97.49 211.18 97.41 210.88 98.26Z" fill="white" stroke="#263238" stroke-miterlimit="10"/>
<path d="M196.39 96.25L196.61 91.95L193.61 87.51C191.61 82.06 178.96 77.43 169.93 75.21C160.9 72.99 150.24 74.49 145.54 76.87C140.84 79.25 139.77 80.69 139.77 80.69L139.48 86.4C138.2 92.87 149.88 100.64 165.58 103.75C181.28 106.86 195.04 104.13 196.32 97.65C196.409 97.189 196.433 96.7177 196.39 96.25ZM182.81 97C173.61 98.37 165.2 97.3601 157.88 94.16C153.231 91.9971 148.843 89.3133 144.8 86.16C146.8 81.65 157.54 79.95 169.8 82.38C181.42 84.68 190.39 89.9 191.38 94.62C188.67 95.8687 185.776 96.6723 182.81 97Z" fill="#8F8F8F" stroke="#263238" stroke-miterlimit="10"/>
<path d="M170.51 74.6001C154.82 71.4901 141.05 74.2201 139.77 80.6901C138.49 87.1601 150.17 94.9401 165.87 98.0401C181.57 101.14 195.33 98.4201 196.61 91.9501C197.89 85.4801 186.21 77.7101 170.51 74.6001ZM191.73 90.4901C190.73 95.5701 179.41 97.6101 166.46 95.0501C153.51 92.4901 143.83 86.2901 144.84 81.2101C145.85 76.1301 157.16 74.0901 170.11 76.6501C183.06 79.2101 192.73 85.4101 191.73 90.4901Z" fill="white" stroke="#263238" stroke-miterlimit="10"/>
<path d="M387.43 479.46H489.81" stroke="#263238" stroke-miterlimit="10"/>
<path d="M16.29 479.46H379.2" stroke="#263238" stroke-miterlimit="10"/>
</svg>
